<?xml version="1.0" encoding="utf-8"?>
<!-- Generator: Adobe Illustrator 15.0.2, SVG Export Plug-In . SVG Version: 6.00 Build 0)  -->
<!DOCTYPE svg PUBLIC "-//W3C//DTD SVG 1.1//EN" "http://www.w3.org/Graphics/SVG/1.1/DTD/svg11.dtd">
<svg version="1.1" id="Layer_1" xmlns="http://www.w3.org/2000/svg" xmlns:xlink="http://www.w3.org/1999/xlink" x="0px" y="0px"
	 width="1353.64px" height="413.107px" viewBox="0 0 1353.64 413.107" enable-background="new 0 0 1353.64 413.107"
	 xml:space="preserve">
<g id="XMLID_1_">
	<g>
		<polygon fill="#85B6E3" points="559.313,54.174 5.325,51.034 745.254,0.25 156.079,398.8 269.357,202.426 262.597,255.02 		"/>
	</g>
	<g>
	</g>
</g>
<g>
	<path d="M38.831,67.338c2.168,7.491,2.562,10.053,3.351,17.346c3.351-13.601,8.87-17.346,24.639-17.346
		c9.855,0,14.192,0.789,17.543,3.351c3.745,2.957,5.52,6.308,7.49,13.995c3.942-13.798,9.265-17.346,25.428-17.346
		c19.515,0,23.851,4.731,23.851,26.019v105.456H105.85v-88.701c0-9.265-1.773-12.418-7.096-12.418s-7.293,3.351-7.293,12.418v88.701
		H56.177v-90.869c0-7.096-2.365-10.447-7.293-10.447c-4.73,0-7.096,3.548-7.096,10.841v90.475H6.505V97.3
		c0-12.418-0.789-18.726-3.351-29.961H38.831z"/>
	<path d="M189.03,67.338v131.475h-35.283V67.338H189.03z"/>
	<path d="M264.13,95.92h-15.967v102.893H212.88V95.92h-15.966V67.338h67.216V95.92z"/>
	<path d="M336.468,95.92h-30.946v22.865h6.308c22.668,0,28.187,6.899,28.187,34.889v8.082c0,15.178-1.773,24.639-5.321,29.764
		c-3.548,4.928-7.885,6.702-16.755,7.096c-3.351,0-3.351,0-14.39,0.197h-32.721v-28.582h32.918v-22.865h-5.519
		c-13.602,0-19.515-1.971-23.26-8.279c-3.745-5.716-4.73-11.827-4.73-27.793v-8.082c0-16.164,2.76-26.808,8.081-31.341
		c4.534-3.942,8.674-4.534,27.793-4.534h30.355V95.92z"/>
</g>
<g>
</g>
<g>
	<path d="M394.079,96.602c0,5.794-2.063,10.77-6.19,14.926c-4.127,4.157-9.077,6.235-14.852,6.235
		c-5.814,0-10.794-2.078-14.941-6.235c-4.146-4.156-6.22-9.142-6.22-14.956c0-5.813,2.068-10.794,6.205-14.941
		s9.142-6.221,15.016-6.221c5.774,0,10.715,2.074,14.822,6.221C392.025,85.778,394.079,90.768,394.079,96.602z M390.3,96.572
		c0-4.861-1.692-9.038-5.075-12.53c-3.383-3.492-7.436-5.238-12.158-5.238c-4.821,0-8.929,1.741-12.321,5.224
		c-3.394,3.482-5.09,7.664-5.09,12.545c0,4.921,1.701,9.118,5.104,12.59c3.402,3.473,7.485,5.208,12.247,5.208
		c4.723,0,8.785-1.735,12.188-5.208C388.598,105.69,390.3,101.493,390.3,96.572z M383.603,108.775h-5.476l-3.959-9.852h-5.833v9.852
		h-5.209V84.399h11.31c3.096,0,5.402,0.675,6.92,2.024c1.519,1.349,2.277,3.085,2.277,5.208c0,3.036-1.508,5.179-4.524,6.429
		L383.603,108.775z M368.335,95.054h5.356c3.036,0,4.554-1.161,4.554-3.482c0-2.222-1.389-3.333-4.166-3.333h-5.744V95.054z"/>
</g>
<g>
	<path d="M410.22,137.63c1.218,4.18,1.439,5.61,1.883,9.68c1.883-7.59,4.983-9.68,13.844-9.68c5.537,0,7.974,0.44,9.856,1.87
		c2.104,1.65,3.101,3.52,4.208,7.81c2.215-7.7,5.205-9.68,14.287-9.68c10.964,0,13.4,2.64,13.4,14.521V211h-19.824v-49.5
		c0-5.17-0.997-6.93-3.986-6.93c-2.99,0-4.099,1.87-4.099,6.93V211h-19.823v-50.71c0-3.96-1.329-5.83-4.098-5.83
		c-2.658,0-3.987,1.98-3.987,6.05V211h-19.824v-56.65c0-6.93-0.442-10.45-1.883-16.72H410.22z"/>
	<path d="M492.056,137.63v11.99h-17.608v-11.99H492.056z M492.056,154.68V211h-17.608v-56.32H492.056z"/>
	<path d="M526.607,167.99h-5.87c-4.208,0-4.983,1.1-4.983,7.15v15.84c0,5.94,0.665,6.71,5.316,6.71h5.537V211h-16.059
		c-6.312,0-9.192-0.99-10.964-3.63c-1.329-2.2-1.329-2.2-1.439-13.09v-26.95c0-5.5,0-5.5,0.554-7.26
		c1.218-4.07,3.986-5.39,11.96-5.39h15.948V167.99z"/>
	<path d="M548.533,154.68v7.26c3.323-5.61,6.313-7.59,11.407-7.59c1.107,0,1.772,0.11,3.102,0.66l-1.329,19.03
		c-5.205-2.53-7.531-3.41-13.18-5.17V211h-17.608v-56.32H548.533z"/>
	<path d="M593.603,154.68c8.417,0,12.183,0.77,14.397,2.86c2.215,2.09,2.437,3.19,2.437,12.87v24.97c0,9.57-0.222,10.67-2.437,12.76
		c-2.215,2.09-5.98,2.86-14.397,2.86h-9.745c-8.528,0-12.293-0.77-14.508-2.86c-2.216-2.09-2.437-3.19-2.437-12.76v-24.97
		c0-9.68,0.221-10.78,2.437-12.87c2.215-2.09,5.979-2.86,14.508-2.86H593.603z M592.828,174.15c0-4.29-1.219-6.05-4.319-6.05
		c-2.769,0-3.987,1.87-3.987,6.05v17.71c0,4.29,1.219,6.05,4.319,6.05c2.658,0,3.987-1.98,3.987-6.05V174.15z"/>
</g>
<g>
	<path d="M661.54,135.605v73.371h-19.69v-73.371H661.54z"/>
	<path d="M685.739,152.655v6.05c2.971-4.95,5.721-6.27,12.54-6.27c6.931,0,10.341,1.32,11.99,4.62c0.99,2.09,0.99,2.09,1.101,14.63
		v37.29h-17.49v-37.18c0-4.18-1.43-6.38-4.181-6.38c-2.75,0-3.96,2.09-3.96,6.6v36.96H668.25v-56.32H685.739z"/>
	<path d="M750.2,165.965h-15.841v6.6h6.16c5.61,0,8.58,0.99,10.12,3.41c1.32,2.09,1.54,3.63,1.54,12.21v7.7
		c0,1.54-0.439,5.28-0.77,6.71c-0.66,2.86-3.41,5.61-6.381,6.05c-0.88,0.11-1.76,0.22-6.159,0.33h-22.001v-13.31h17.271v-7.15h-8.58
		c-4.18,0-6.16-0.55-7.26-2.2c-1.21-1.76-1.32-2.09-1.431-10.23v-13.31c0-4.95,1.101-7.59,3.961-9.02c1.539-0.77,3.63-1.1,7.81-1.1
		H750.2V165.965z"/>
	<path d="M771.538,208.976c-9.13,0-11.99-3.19-11.99-13.31v-27.61h-4.729v-13.31h4.729v-13.31h17.49v13.31h8.36v13.31h-8.36v23.65
		c0,2.86,0.99,3.96,3.74,3.96h4.62v13.31H771.538z"/>
	<path d="M807.727,152.655v7.26c3.301-5.61,6.271-7.59,11.33-7.59c1.101,0,1.761,0.11,3.08,0.66l-1.319,19.03
		c-5.17-2.53-7.48-3.41-13.091-5.17v42.13h-17.489v-56.32H807.727z"/>
	<path d="M843.915,189.835c0,4.18,1.21,6.05,3.96,6.05c3.08,0,4.29-1.76,4.29-6.05v-37.18h17.49v39.05c0,7.7-0.77,10.56-3.52,13.31
		c-3.08,3.19-5.83,3.96-14.851,3.96h-6.489c-9.021,0-11.771-0.77-14.851-3.96c-2.75-2.75-3.52-5.5-3.52-13.31v-39.05h17.489V189.835
		z"/>
	<path d="M893.523,152.655v6.05c2.971-4.95,5.721-6.27,12.65-6.27c8.36,0,11.44,1.65,12.98,6.93c3.52-5.83,5.39-6.93,12.1-6.93
		c10.78,0,13.42,2.31,13.42,11.88v44.66h-17.49v-37.51c0-3.85-1.539-6.05-4.18-6.05c-2.53,0-3.85,2.09-3.85,6.27v37.29h-17.49
		v-37.18c0-4.18-1.43-6.38-4.18-6.38c-2.751,0-3.961,2.09-3.961,6.6v36.96h-17.489v-56.32H893.523z"/>
	<path d="M968.214,187.855v2.97c0,3.85,1.319,4.84,6.159,4.84h19.141v13.31h-29.37c-11.221,0-13.42-1.98-13.42-11.88v-3.3v-29.81
		c0-3.96,0.88-7.04,2.64-8.8c1.76-1.76,5.17-2.53,11.771-2.53h13.75c6.05,0,9.79,0.77,11.989,2.53c2.311,1.76,2.641,3.08,2.641,9.57
		v23.1H968.214z M976.023,177.186v-5.06c0-3.85-1.43-6.16-3.96-6.16c-2.42,0-3.85,2.31-3.85,6.16v5.06H976.023z"/>
	<path d="M1016.722,152.655v6.05c2.971-4.95,5.721-6.27,12.54-6.27c6.931,0,10.341,1.32,11.99,4.62c0.99,2.09,0.99,2.09,1.101,14.63
		v37.29h-17.49v-37.18c0-4.18-1.43-6.38-4.181-6.38c-2.75,0-3.96,2.09-3.96,6.6v36.96h-17.489v-56.32H1016.722z"/>
	<path d="M1061.711,208.976c-9.13,0-11.99-3.19-11.99-13.31v-27.61h-4.729v-13.31h4.729v-13.31h17.49v13.31h8.36v13.31h-8.36v23.65
		c0,2.86,0.99,3.96,3.74,3.96h4.62v13.31H1061.711z"/>
	<path d="M1123.091,208.976h-17.49v-6.16c-2.97,5.61-4.18,6.38-9.68,6.38h-3.521c-6.27,0-8.36-0.66-10.01-2.97
		c-1.32-1.98-2.09-6.38-2.09-11.66v-30.03c0-5.28,0.55-7.7,2.199-9.35c1.761-1.87,4.4-2.86,7.591-2.86h3.739
		c5.61,0,7.48,0.88,10.45,4.62l1.32,1.65v-5.94h17.49V208.976z M1105.601,171.795c0-4.4-1.21-6.38-3.96-6.38
		c-2.64,0-3.85,2.09-3.85,6.38v17.38c0,4.4,1.21,6.38,3.96,6.38c2.64,0,3.85-2.09,3.85-6.38V171.795z"/>
	<path d="M1143.877,208.976c-9.13,0-11.99-3.19-11.99-13.31v-27.61h-4.729v-13.31h4.729v-13.31h17.49v13.31h8.36v13.31h-8.36v23.65
		c0,2.86,0.99,3.96,3.74,3.96h4.62v13.31H1143.877z"/>
	<path d="M1180.066,135.605v11.99h-17.489v-11.99H1180.066z M1180.066,152.655v56.32h-17.489v-56.32H1180.066z"/>
	<path d="M1212.626,152.655c8.36,0,12.101,0.77,14.3,2.86c2.2,2.09,2.42,3.19,2.42,12.87v24.97c0,9.57-0.22,10.67-2.42,12.76
		c-2.199,2.09-5.939,2.86-14.3,2.86h-9.68c-8.471,0-12.21-0.77-14.41-2.86c-2.2-2.09-2.42-3.19-2.42-12.76v-24.97
		c0-9.68,0.22-10.78,2.42-12.87c2.2-2.09,5.939-2.86,14.41-2.86H1212.626z M1211.856,172.125c0-4.29-1.21-6.05-4.29-6.05
		c-2.75,0-3.96,1.87-3.96,6.05v17.71c0,4.29,1.21,6.05,4.29,6.05c2.64,0,3.96-1.98,3.96-6.05V172.125z"/>
	<path d="M1252.885,152.655v6.05c2.971-4.95,5.721-6.27,12.54-6.27c6.931,0,10.341,1.32,11.99,4.62c0.99,2.09,0.99,2.09,1.101,14.63
		v37.29h-17.49v-37.18c0-4.18-1.43-6.38-4.18-6.38c-2.751,0-3.961,2.09-3.961,6.6v36.96h-17.489v-56.32H1252.885z"/>
</g>
<g>
	<path d="M1353.641,191.11l-8.141,5.94l7.591,13.2h-19.471l-1.87-3.41c-4.29,2.97-6.05,3.41-11.77,3.41h-9.24
		c-2.42,0-6.71-0.44-8.91-0.77c-3.52-0.77-5.83-3.19-6.49-7.04c-0.439-2.2-0.55-3.96-0.55-7.81v-10.78c0-4.29,2.09-8.14,6.16-11.33
		l2.2-1.65l-3.521-3.96c-3.189-3.52-4.18-6.71-4.18-13.75v-3.85c0-4.73,1.54-8.8,4.07-10.34c2.09-1.32,6.489-2.09,12.319-2.09h7.7
		c7.811,0,12.32,0.88,14.08,2.97c1.65,1.87,2.75,6.38,2.75,11.44v5.94c0,6.27-1.54,9.35-6.27,12.87l-2.42,1.76l8.689,11.44
		l7.92-5.39L1353.641,191.11z M1319.431,154.81c0-3.41-0.99-4.62-3.96-4.62c-2.971,0-3.961,1.21-3.961,4.51
		c0,3.19,0.881,4.73,3.961,7.04C1318.55,159.43,1319.431,157.89,1319.431,154.81z M1314.48,181.1c-2.311,2.75-2.641,3.85-2.641,8.58
		v5.28h6.49c1.65,0,2.53-0.44,5.061-2.42L1314.48,181.1z"/>
</g>
<g>
	<path d="M434.34,245.33h-8.909v57.42h-19.69v-57.42h-8.91v-15.95h37.51V245.33z"/>
	<path d="M452.16,281.63v2.97c0,3.85,1.319,4.84,6.159,4.84h19.141v13.31h-29.37c-11.221,0-13.42-1.98-13.42-11.88v-3.3v-29.81
		c0-3.96,0.88-7.04,2.64-8.8c1.76-1.76,5.17-2.53,11.771-2.53h13.75c6.05,0,9.79,0.77,11.989,2.53c2.311,1.76,2.641,3.08,2.641,9.57
		v23.1H452.16z M459.97,270.96v-5.06c0-3.85-1.43-6.16-3.96-6.16c-2.42,0-3.85,2.31-3.85,6.16v5.06H459.97z"/>
	<path d="M500.668,229.38v73.371h-17.489V229.38H500.668z"/>
	<path d="M524.208,281.63v2.97c0,3.85,1.319,4.84,6.159,4.84h19.141v13.31h-29.37c-11.221,0-13.42-1.98-13.42-11.88v-3.3v-29.81
		c0-3.96,0.88-7.04,2.64-8.8c1.76-1.76,5.17-2.53,11.771-2.53h13.75c6.05,0,9.79,0.77,11.989,2.53c2.311,1.76,2.641,3.08,2.641,9.57
		v23.1H524.208z M532.018,270.96v-5.06c0-3.85-1.43-6.16-3.96-6.16c-2.42,0-3.85,2.31-3.85,6.16v5.06H532.018z"/>
	<path d="M572.716,246.43v6.05c2.971-4.95,5.721-6.27,12.65-6.27c8.36,0,11.44,1.65,12.98,6.93c3.52-5.83,5.39-6.93,12.1-6.93
		c10.78,0,13.42,2.31,13.42,11.88v44.66h-17.49v-37.51c0-3.85-1.54-6.05-4.18-6.05c-2.53,0-3.85,2.09-3.85,6.27v37.29h-17.49v-37.18
		c0-4.18-1.43-6.38-4.181-6.38c-2.75,0-3.96,2.09-3.96,6.6v36.96h-17.489v-56.32H572.716z"/>
	<path d="M647.406,281.63v2.97c0,3.85,1.319,4.84,6.159,4.84h19.141v13.31h-29.37c-11.221,0-13.42-1.98-13.42-11.88v-3.3v-29.81
		c0-3.96,0.88-7.04,2.64-8.8c1.76-1.76,5.17-2.53,11.771-2.53h13.75c6.05,0,9.79,0.77,11.989,2.53c2.311,1.76,2.641,3.08,2.641,9.57
		v23.1H647.406z M655.216,270.96v-5.06c0-3.85-1.43-6.16-3.96-6.16c-2.42,0-3.85,2.31-3.85,6.16v5.06H655.216z"/>
	<path d="M693.163,302.75c-9.13,0-11.99-3.19-11.99-13.31v-27.61h-4.729v-13.31h4.729v-13.31h17.49v13.31h8.36v13.31h-8.36v23.65
		c0,2.86,0.99,3.96,3.74,3.96h4.62v13.31H693.163z"/>
	<path d="M729.353,246.43v7.26c3.301-5.61,6.271-7.59,11.33-7.59c1.101,0,1.761,0.11,3.08,0.66l-1.319,19.03
		c-5.17-2.53-7.48-3.41-13.091-5.17v42.13h-17.489v-56.32H729.353z"/>
	<path d="M764.77,267.771c0.22,15.29,0.33,15.73,3.96,22c3.63-6.27,3.74-6.71,3.96-22v-21.34h17.49v20.46
		c0,1.54-0.11,4.73-0.439,9.46c-0.551,7.81-2.311,13.2-6.16,19.36c-1.98,3.08-3.19,4.4-6.271,7.04v18.04h-17.05v-18.04
		c-5.391-4.4-8.91-10.01-11.11-17.71c-0.99-3.19-1.87-11.99-1.87-18.15v-20.46h17.49V267.771z"/>
</g>
<g>
	<path d="M872.33,244.83h-17.27v12.76h3.52c12.65,0,15.73,3.85,15.73,19.47v4.51c0,8.47-0.99,13.75-2.971,16.61
		c-1.979,2.75-4.399,3.74-9.35,3.96c-1.87,0-1.87,0-8.03,0.11H835.7V286.3h18.37v-12.76h-3.08c-7.59,0-10.89-1.1-12.98-4.62
		c-2.09-3.19-2.64-6.6-2.64-15.51v-4.51c0-9.02,1.54-14.96,4.51-17.49c2.53-2.2,4.84-2.53,15.511-2.53h16.939V244.83z"/>
	<path d="M895.979,267.271c0.22,15.29,0.33,15.73,3.96,22c3.63-6.27,3.74-6.71,3.96-22v-21.34h17.49v20.46
		c0,1.54-0.11,4.73-0.439,9.46c-0.551,7.81-2.311,13.2-6.16,19.36c-1.98,3.08-3.19,4.4-6.271,7.04v18.04h-17.05v-18.04
		c-5.391-4.4-8.91-10.01-11.11-17.71c-0.99-3.19-1.87-11.99-1.87-18.15v-20.46h17.49V267.271z"/>
	<path d="M959.446,259.24h-15.841v6.6h6.16c5.61,0,8.58,0.99,10.12,3.41c1.32,2.09,1.54,3.63,1.54,12.21v7.7
		c0,1.54-0.439,5.28-0.77,6.71c-0.66,2.86-3.41,5.61-6.381,6.05c-0.88,0.11-1.76,0.22-6.159,0.33h-22.001v-13.31h17.271v-7.15h-8.58
		c-4.18,0-6.16-0.55-7.26-2.2c-1.21-1.76-1.32-2.09-1.431-10.23v-13.31c0-4.95,1.101-7.59,3.961-9.02c1.539-0.77,3.63-1.1,7.81-1.1
		h21.561V259.24z"/>
	<path d="M980.784,302.25c-9.13,0-11.99-3.19-11.99-13.31v-27.61h-4.729v-13.31h4.729v-13.31h17.49v13.31h8.36v13.31h-8.36v23.65
		c0,2.86,0.99,3.96,3.74,3.96h4.62v13.31H980.784z"/>
	<path d="M1016.864,281.13v2.97c0,3.85,1.319,4.84,6.159,4.84h19.141v13.31h-29.37c-11.221,0-13.42-1.98-13.42-11.88v-3.3v-29.81
		c0-3.96,0.88-7.04,2.64-8.8c1.76-1.76,5.17-2.53,11.771-2.53h13.75c6.05,0,9.79,0.77,11.989,2.53c2.311,1.76,2.641,3.08,2.641,9.57
		v23.1H1016.864z M1024.674,270.46v-5.06c0-3.85-1.43-6.16-3.96-6.16c-2.42,0-3.85,2.31-3.85,6.16v5.06H1024.674z"/>
	<path d="M1065.372,245.93v6.05c2.971-4.95,5.721-6.27,12.65-6.27c8.36,0,11.44,1.65,12.98,6.93c3.52-5.83,5.39-6.93,12.1-6.93
		c10.78,0,13.42,2.31,13.42,11.88v44.66h-17.49v-37.51c0-3.85-1.54-6.05-4.18-6.05c-2.53,0-3.85,2.09-3.85,6.27v37.29h-17.49v-37.18
		c0-4.18-1.43-6.38-4.181-6.38c-2.75,0-3.96,2.09-3.96,6.6v36.96h-17.489v-56.32H1065.372z"/>
	<path d="M1155.353,259.24h-15.841v6.6h6.16c5.61,0,8.58,0.99,10.12,3.41c1.32,2.09,1.54,3.63,1.54,12.21v7.7
		c0,1.54-0.439,5.28-0.77,6.71c-0.66,2.86-3.41,5.61-6.381,6.05c-0.88,0.11-1.76,0.22-6.159,0.33h-22.001v-13.31h17.271v-7.15h-8.58
		c-4.18,0-6.16-0.55-7.26-2.2c-1.21-1.76-1.32-2.09-1.431-10.23v-13.31c0-4.95,1.101-7.59,3.961-9.02c1.539-0.77,3.63-1.1,7.81-1.1
		h21.561V259.24z"/>
</g>
<g>
	<path d="M1202.25,279.82l-13.64,25.19h-13.53l10.45-25.19H1202.25z"/>
</g>
<g>
	<path d="M1243.04,229.88v73.371h-19.69V229.88H1243.04z"/>
	<path d="M1267.239,246.93v6.05c2.971-4.95,5.721-6.27,12.54-6.27c6.931,0,10.341,1.32,11.99,4.62c0.99,2.09,0.99,2.09,1.101,14.63
		v37.29h-17.49v-37.18c0-4.18-1.43-6.38-4.181-6.38c-2.75,0-3.96,2.09-3.96,6.6v36.96h-17.489v-56.32H1267.239z"/>
	<path d="M1327.189,260.24h-5.83c-4.18,0-4.949,1.1-4.949,7.15v15.84c0,5.94,0.659,6.71,5.279,6.71h5.5v13.31h-15.95
		c-6.27,0-9.13-0.99-10.89-3.63c-1.32-2.2-1.32-2.2-1.43-13.09v-26.95c0-5.5,0-5.5,0.55-7.26c1.21-4.07,3.96-5.39,11.88-5.39h15.84
		V260.24z"/>
	<path d="M1349.738,295.771c0,4.18-3.96,7.7-8.69,7.7c-4.84,0-8.8-3.52-8.8-7.7c0-4.4,3.96-7.81,9.021-7.81
		C1345.889,287.96,1349.738,291.48,1349.738,295.771z"/>
</g>
<g>
	<path d="M169.955,354.81v6.576h-12.721v6.982c1.591-1.879,3.64-2.818,6.145-2.818c2.827,0,4.964,0.791,6.411,2.374
		s2.171,4.625,2.171,9.128v5.865c0,2.911-0.14,5.049-0.419,6.411s-0.876,2.624-1.79,3.783s-2.188,2.048-3.821,2.666
		s-3.627,0.927-5.979,0.927c-2.641,0-4.968-0.461-6.982-1.384s-3.444-2.298-4.291-4.126s-1.27-4.655-1.27-8.48v-2.234h10.258v2.564
		c0,2.657,0.093,4.545,0.279,5.662s0.829,1.676,1.93,1.676c0.508,0,0.918-0.161,1.231-0.482s0.482-0.669,0.508-1.041
		s0.055-1.989,0.089-4.85v-8.15c0-1.54-0.161-2.59-0.482-3.148s-0.854-0.838-1.6-0.838c-0.474,0-0.872,0.144-1.193,0.432
		s-0.529,0.597-0.622,0.927s-0.14,1.096-0.14,2.298H147.51l0.432-20.719H169.955z"/>
	<path d="M196.387,354.81v26.863h2.92v7.008h-2.92v7.236h-10.258v-7.236h-12.188v-7.008l8.861-26.863H196.387z M186.129,381.673
		v-17.494l-4.532,17.494H186.129z"/>
	<path d="M225.637,368.724v13.711c0,3.114-0.169,5.383-0.508,6.805s-1.041,2.751-2.107,3.986s-2.353,2.124-3.859,2.666
		s-3.19,0.812-5.053,0.812c-2.454,0-4.494-0.283-6.119-0.851s-2.92-1.451-3.885-2.653s-1.65-2.467-2.057-3.796
		s-0.609-3.44-0.609-6.335v-14.346c0-3.774,0.326-6.602,0.978-8.48s1.946-3.386,3.885-4.52s4.287-1.701,7.046-1.701
		c2.251,0,4.266,0.394,6.043,1.181s3.106,1.748,3.986,2.882s1.477,2.412,1.79,3.834S225.637,365.61,225.637,368.724z
		 M215.379,365.271c0-2.184-0.105-3.551-0.317-4.101s-0.707-0.825-1.485-0.825c-0.762,0-1.266,0.292-1.511,0.876
		s-0.368,1.934-0.368,4.05v20.059c0,2.387,0.114,3.825,0.343,4.316s0.724,0.736,1.485,0.736s1.261-0.288,1.498-0.863
		s0.355-1.87,0.355-3.885V365.271z"/>
	<path d="M250.24,354.81v26.863h2.92v7.008h-2.92v7.236h-10.258v-7.236h-12.188v-7.008l8.861-26.863H250.24z M239.982,381.673
		v-17.494l-4.532,17.494H239.982z"/>
</g>
<g>
	<path d="M297.922,372.71h-10.689v-7.145c0-2.077-0.114-3.374-0.343-3.89c-0.229-0.515-0.732-0.772-1.511-0.772
		c-0.88,0-1.438,0.313-1.676,0.939s-0.355,1.98-0.355,4.062V385c0,1.997,0.118,3.301,0.355,3.91s0.771,0.914,1.6,0.914
		c0.796,0,1.316-0.305,1.562-0.916s0.368-2.045,0.368-4.302v-5.167h10.689v1.602c0,4.255-0.301,7.272-0.901,9.053
		s-1.93,3.34-3.986,4.679s-4.592,2.009-7.604,2.009c-3.132,0-5.713-0.567-7.744-1.701s-3.377-2.704-4.037-4.71
		s-0.99-5.023-0.99-9.052v-12.01c0-2.962,0.102-5.184,0.305-6.665c0.203-1.48,0.809-2.907,1.815-4.278s2.403-2.45,4.189-3.237
		s3.838-1.181,6.157-1.181c3.148,0,5.747,0.608,7.795,1.825c2.048,1.218,3.394,2.735,4.037,4.553
		c0.644,1.816,0.965,4.644,0.965,8.48V372.71z"/>
	<path d="M324.658,374.056v8.252c0,3.03-0.152,5.252-0.457,6.665s-0.956,2.733-1.955,3.961s-2.281,2.133-3.847,2.717
		s-3.364,0.876-5.396,0.876c-2.269,0-4.189-0.25-5.764-0.749s-2.797-1.253-3.669-2.26s-1.494-2.226-1.866-3.656
		s-0.559-3.576-0.559-6.437v-8.633c0-3.131,0.339-5.577,1.016-7.338s1.896-3.174,3.656-4.24s4.012-1.6,6.754-1.6
		c2.302,0,4.278,0.343,5.929,1.028s2.924,1.578,3.821,2.679s1.511,2.234,1.841,3.402S324.658,371.669,324.658,374.056z
		 M314.4,371.517c0-1.727-0.093-2.813-0.279-3.263c-0.187-0.448-0.584-0.673-1.193-0.673s-1.016,0.225-1.219,0.673
		c-0.203,0.449-0.305,1.536-0.305,3.263v15.209c0,1.591,0.102,2.628,0.305,3.11s0.601,0.724,1.193,0.724
		c0.609,0,1.012-0.22,1.206-0.66s0.292-1.388,0.292-2.844V371.517z"/>
	<path d="M337.201,375.275h-9.623v-2.26c0-2.606,0.301-4.616,0.901-6.03c0.601-1.413,1.807-2.662,3.618-3.745
		s4.164-1.625,7.059-1.625c3.47,0,6.085,0.614,7.846,1.841c1.761,1.228,2.818,2.734,3.174,4.52
		c0.355,1.786,0.533,5.463,0.533,11.032v16.91h-9.979v-3.002c-0.626,1.203-1.435,2.106-2.425,2.708
		c-0.99,0.603-2.171,0.903-3.542,0.903c-1.794,0-3.44-0.504-4.938-1.511s-2.247-3.212-2.247-6.614v-2.768
		c0-2.522,0.397-4.24,1.193-5.154s2.768-1.98,5.916-3.199c3.368-1.32,5.171-2.209,5.408-2.666s0.355-1.388,0.355-2.793
		c0-1.761-0.131-2.907-0.394-3.44s-0.698-0.8-1.308-0.8c-0.694,0-1.126,0.225-1.295,0.673c-0.169,0.449-0.254,1.612-0.254,3.491
		V375.275z M340.451,379.896c-1.642,1.202-2.594,2.209-2.856,3.021s-0.394,1.98-0.394,3.504c0,1.743,0.114,2.869,0.343,3.377
		s0.682,0.762,1.358,0.762c0.644,0,1.062-0.199,1.257-0.597s0.292-1.443,0.292-3.136V379.896z"/>
	<path d="M364.801,354.81v41.107h-10.562V354.81H364.801z"/>
</g>
<g>
	<path d="M404.441,354.81l6.112,41.107h-10.925l-0.573-7.389h-3.823l-0.643,7.389h-11.052l5.452-41.107H404.441z M398.775,381.242
		c-0.541-4.656-1.084-10.411-1.628-17.266c-1.089,7.872-1.773,13.627-2.052,17.266H398.775z"/>
	<path d="M433.291,362.224l-4.799,33.693h-13.406l-5.154-33.693h9.16l2.888,24.604c0.227-1.81,0.611-6.218,1.156-13.225
		c0.291-3.911,0.623-7.704,0.995-11.379H433.291z"/>
	<path d="M458.021,379.667h-13.279v7.287c0,1.523,0.11,2.505,0.33,2.945s0.644,0.66,1.27,0.66c0.778,0,1.299-0.292,1.562-0.876
		s0.394-1.714,0.394-3.39v-4.443h9.725v2.488c0,2.082-0.131,3.682-0.394,4.799s-0.876,2.311-1.841,3.58s-2.188,2.222-3.669,2.856
		s-3.339,0.952-5.573,0.952c-2.167,0-4.079-0.313-5.738-0.939s-2.949-1.485-3.872-2.577s-1.562-2.294-1.917-3.605
		s-0.533-3.221-0.533-5.726v-9.826c0-2.945,0.397-5.269,1.193-6.97s2.099-3.004,3.91-3.91c1.812-0.905,3.894-1.358,6.246-1.358
		c2.878,0,5.252,0.546,7.122,1.638s3.183,2.539,3.936,4.342s1.13,4.338,1.13,7.604V379.667z M447.738,374.183v-2.463
		c0-1.743-0.093-2.869-0.279-3.377s-0.567-0.762-1.143-0.762c-0.711,0-1.151,0.216-1.32,0.647s-0.254,1.596-0.254,3.491v2.463
		H447.738z"/>
</g>
<g>
	<path d="M471.488,387.539v8.379h-7.744v-8.379H471.488z"/>
</g>
<g>
	<path d="M598.988,387.539v8.379h-7.744v-8.379H598.988z"/>
</g>
<g>
	<path d="M484.125,387.869v3.682c0,1.93-0.229,3.513-0.686,4.748s-1.248,2.285-2.374,3.148s-2.399,1.438-3.821,1.727v-2.945
		c1.016-0.575,1.591-1.346,1.727-2.311h-1.727v-8.049H484.125z"/>
</g>
<g>
	<path d="M612.125,387.869v3.682c0,1.93-0.229,3.513-0.686,4.748s-1.248,2.285-2.374,3.148s-2.399,1.438-3.821,1.727v-2.945
		c1.016-0.575,1.591-1.346,1.727-2.311h-1.727v-8.049H612.125z"/>
</g>
<g>
	<path d="M526.611,367.251h-9.928v-3.047c0-1.422-0.127-2.327-0.381-2.717s-0.677-0.584-1.27-0.584c-0.644,0-1.13,0.263-1.46,0.788
		s-0.495,1.32-0.495,2.389c0,1.371,0.186,2.404,0.557,3.1c0.354,0.694,1.361,1.532,3.021,2.513c4.759,2.824,7.756,5.142,8.991,6.953
		s1.854,4.731,1.854,8.76c0,2.929-0.343,5.087-1.028,6.475s-2.01,2.552-3.974,3.491s-4.249,1.409-6.855,1.409
		c-2.86,0-5.303-0.542-7.325-1.625s-3.348-2.463-3.974-4.139s-0.939-4.054-0.939-7.135v-2.691h9.928v5.002
		c0,1.54,0.14,2.53,0.419,2.971s0.774,0.66,1.485,0.66s1.24-0.279,1.587-0.838s0.521-1.388,0.521-2.488
		c0-2.421-0.33-4.003-0.99-4.748c-0.677-0.745-2.345-1.989-5.002-3.732c-2.657-1.761-4.418-3.038-5.281-3.834
		s-1.578-1.896-2.146-3.301s-0.851-3.199-0.851-5.383c0-3.148,0.402-5.45,1.206-6.906s2.104-2.594,3.897-3.415
		c1.794-0.82,3.961-1.231,6.5-1.231c2.776,0,5.142,0.448,7.097,1.346s3.25,2.027,3.885,3.39c0.635,1.363,0.952,3.678,0.952,6.944
		V367.251z"/>
	<path d="M537.377,387.539v8.379h-7.744v-8.379H537.377z"/>
</g>
<g>
	<path d="M564.499,354.81h17.824v8.227h-7.135v7.795h6.678v7.82h-6.678v9.039h7.846v8.227h-18.535V354.81z"/>
</g>
<g>
	<path d="M658.941,354.81l6.112,41.107h-10.925l-0.573-7.389h-3.823l-0.643,7.389h-11.052l5.452-41.107H658.941z M653.275,381.242
		c-0.541-4.656-1.084-10.411-1.628-17.266c-1.089,7.871-1.773,13.627-2.052,17.266H653.275z"/>
	<path d="M677.127,354.81v41.107h-10.562V354.81H677.127z"/>
	<path d="M691.066,354.81v9.731c0.847-0.984,1.79-1.718,2.831-2.201s2.171-0.726,3.39-0.726c1.405,0,2.624,0.22,3.656,0.66
		s1.819,1.058,2.361,1.854s0.867,1.574,0.978,2.336s0.165,2.387,0.165,4.875v15.184c0,2.472-0.165,4.312-0.495,5.522
		s-1.104,2.26-2.323,3.148s-2.666,1.333-4.342,1.333c-1.202,0-2.323-0.263-3.364-0.789c-1.041-0.525-1.993-1.314-2.856-2.365
		l-0.66,2.545h-9.598V354.81H691.066z M694.189,371.796c0-1.743-0.11-2.882-0.33-3.415s-0.651-0.8-1.295-0.8
		c-0.626,0-1.032,0.232-1.219,0.698s-0.279,1.638-0.279,3.517v14.523c0,1.812,0.105,2.971,0.317,3.479s0.631,0.762,1.257,0.762
		c0.644,0,1.062-0.263,1.257-0.787s0.292-1.786,0.292-3.783V371.796z"/>
	<path d="M731.311,362.224v33.693h-10.436l0.178-2.799c-0.711,1.136-1.587,1.988-2.628,2.556c-1.041,0.568-2.238,0.853-3.593,0.853
		c-1.54,0-2.818-0.271-3.834-0.812s-1.765-1.261-2.247-2.158s-0.783-1.832-0.901-2.806s-0.178-2.907-0.178-5.802v-22.725h10.258
		v22.928c0,2.624,0.08,4.181,0.241,4.672s0.597,0.736,1.308,0.736c0.762,0,1.215-0.254,1.358-0.762s0.216-2.142,0.216-4.9v-22.674
		H731.311z"/>
	<path d="M758.25,362.224v38.492h-10.258v-7.521c-0.999,1.458-1.917,2.378-2.755,2.76s-1.875,0.572-3.11,0.572
		c-1.794,0-3.279-0.423-4.456-1.27s-1.968-1.942-2.374-3.288s-0.609-3.406-0.609-6.183v-14.854c0-2.285,0.152-3.99,0.457-5.116
		c0.305-1.125,1.037-2.107,2.196-2.945s2.535-1.257,4.126-1.257c1.286,0,2.472,0.288,3.555,0.864
		c1.083,0.578,2.073,1.451,2.971,2.621l0.178-2.876H758.25z M747.992,371.39c0-1.489-0.114-2.497-0.343-3.021
		s-0.639-0.787-1.231-0.787c-0.575,0-0.965,0.229-1.168,0.686s-0.305,1.498-0.305,3.123v15.006c0,1.812,0.102,2.958,0.305,3.44
		s0.618,0.724,1.244,0.724c0.593,0,0.99-0.25,1.193-0.749s0.305-1.587,0.305-3.263V371.39z"/>
	<path d="M785.418,362.224v33.693h-10.436l0.178-2.799c-0.711,1.136-1.587,1.988-2.628,2.556c-1.041,0.568-2.238,0.853-3.593,0.853
		c-1.54,0-2.818-0.271-3.834-0.812s-1.765-1.261-2.247-2.158s-0.783-1.832-0.901-2.806s-0.178-2.907-0.178-5.802v-22.725h10.258
		v22.928c0,2.624,0.08,4.181,0.241,4.672s0.597,0.736,1.308,0.736c0.762,0,1.215-0.254,1.358-0.762s0.216-2.142,0.216-4.9v-22.674
		H785.418z"/>
	<path d="M812.332,379.667h-13.279v7.287c0,1.523,0.11,2.505,0.33,2.945s0.644,0.66,1.27,0.66c0.778,0,1.299-0.292,1.562-0.876
		s0.394-1.714,0.394-3.39v-4.443h9.725v2.488c0,2.082-0.131,3.682-0.394,4.799s-0.876,2.311-1.841,3.58s-2.188,2.222-3.669,2.856
		s-3.339,0.952-5.573,0.952c-2.167,0-4.079-0.313-5.738-0.939s-2.949-1.485-3.872-2.577s-1.562-2.294-1.917-3.605
		s-0.533-3.221-0.533-5.726v-9.826c0-2.945,0.397-5.269,1.193-6.97s2.099-3.004,3.91-3.91c1.812-0.905,3.894-1.358,6.246-1.358
		c2.878,0,5.252,0.546,7.122,1.638s3.183,2.539,3.936,4.342s1.13,4.338,1.13,7.604V379.667z M802.049,374.183v-2.463
		c0-1.743-0.093-2.869-0.279-3.377s-0.567-0.762-1.143-0.762c-0.711,0-1.151,0.216-1.32,0.647s-0.254,1.596-0.254,3.491v2.463
		H802.049z"/>
	<path d="M825.941,362.224l-0.406,4.431c1.489-3.173,3.647-4.854,6.475-5.04v11.857c-1.879,0-3.259,0.254-4.139,0.762
		s-1.422,1.215-1.625,2.12s-0.305,2.992-0.305,6.259v13.305h-10.258v-33.693H825.941z"/>
	<path d="M857.553,362.224v38.492h-10.258v-7.521c-0.999,1.458-1.917,2.378-2.755,2.76s-1.875,0.572-3.11,0.572
		c-1.794,0-3.279-0.423-4.456-1.27s-1.968-1.942-2.374-3.288s-0.609-3.406-0.609-6.183v-14.854c0-2.285,0.152-3.99,0.457-5.116
		c0.305-1.125,1.037-2.107,2.196-2.945s2.535-1.257,4.126-1.257c1.286,0,2.472,0.288,3.555,0.864
		c1.083,0.578,2.073,1.451,2.971,2.621l0.178-2.876H857.553z M847.295,371.39c0-1.489-0.114-2.497-0.343-3.021
		s-0.639-0.787-1.231-0.787c-0.575,0-0.965,0.229-1.168,0.686s-0.305,1.498-0.305,3.123v15.006c0,1.812,0.102,2.958,0.305,3.44
		s0.618,0.724,1.244,0.724c0.593,0,0.99-0.25,1.193-0.749s0.305-1.587,0.305-3.263V371.39z"/>
	<path d="M884.721,362.224v33.693h-10.436l0.178-2.799c-0.711,1.136-1.587,1.988-2.628,2.556c-1.041,0.568-2.238,0.853-3.593,0.853
		c-1.54,0-2.818-0.271-3.834-0.812s-1.765-1.261-2.247-2.158s-0.783-1.832-0.901-2.806s-0.178-2.907-0.178-5.802v-22.725h10.258
		v22.928c0,2.624,0.08,4.181,0.241,4.672s0.597,0.736,1.308,0.736c0.762,0,1.215-0.254,1.358-0.762s0.216-2.142,0.216-4.9v-22.674
		H884.721z"/>
	<path d="M911.635,379.667h-13.279v7.287c0,1.523,0.11,2.505,0.33,2.945s0.644,0.66,1.27,0.66c0.778,0,1.299-0.292,1.562-0.876
		s0.394-1.714,0.394-3.39v-4.443h9.725v2.488c0,2.082-0.131,3.682-0.394,4.799s-0.876,2.311-1.841,3.58s-2.188,2.222-3.669,2.856
		s-3.339,0.952-5.573,0.952c-2.167,0-4.079-0.313-5.738-0.939s-2.949-1.485-3.872-2.577s-1.562-2.294-1.917-3.605
		s-0.533-3.221-0.533-5.726v-9.826c0-2.945,0.397-5.269,1.193-6.97s2.099-3.004,3.91-3.91c1.812-0.905,3.894-1.358,6.246-1.358
		c2.878,0,5.252,0.546,7.122,1.638s3.183,2.539,3.936,4.342s1.13,4.338,1.13,7.604V379.667z M901.352,374.183v-2.463
		c0-1.743-0.093-2.869-0.279-3.377s-0.567-0.762-1.143-0.762c-0.711,0-1.151,0.216-1.32,0.647s-0.254,1.596-0.254,3.491v2.463
		H901.352z"/>
	<path d="M920.953,387.869v3.682c0,1.93-0.229,3.513-0.686,4.748s-1.248,2.285-2.374,3.148s-2.399,1.438-3.821,1.727v-2.945
		c1.016-0.575,1.591-1.346,1.727-2.311h-1.727v-8.049H920.953z"/>
</g>
<g>
	<path d="M967.33,354.81v41.107h-9.369L952.4,377.23v18.688h-8.938V354.81h8.938l5.992,18.51v-18.51H967.33z"/>
	<path d="M994.549,379.667H981.27v7.287c0,1.523,0.11,2.505,0.33,2.945s0.644,0.66,1.27,0.66c0.778,0,1.299-0.292,1.562-0.876
		s0.394-1.714,0.394-3.39v-4.443h9.725v2.488c0,2.082-0.131,3.682-0.394,4.799s-0.876,2.311-1.841,3.58s-2.188,2.222-3.669,2.856
		s-3.339,0.952-5.573,0.952c-2.167,0-4.079-0.313-5.738-0.939s-2.949-1.485-3.872-2.577s-1.562-2.294-1.917-3.605
		s-0.533-3.221-0.533-5.726v-9.826c0-2.945,0.397-5.269,1.193-6.97s2.099-3.004,3.91-3.91c1.812-0.905,3.894-1.358,6.246-1.358
		c2.878,0,5.252,0.546,7.122,1.638s3.183,2.539,3.936,4.342s1.13,4.338,1.13,7.604V379.667z M984.266,374.183v-2.463
		c0-1.743-0.093-2.869-0.279-3.377s-0.567-0.762-1.143-0.762c-0.711,0-1.151,0.216-1.32,0.647s-0.254,1.596-0.254,3.491v2.463
		H984.266z"/>
	<path d="M1031.061,362.224l-4.094,33.693h-11.135c-0.605-4.116-1.314-9.541-2.126-16.275c-0.278,2.963-0.662,5.95-1.152,8.963
		l-1.126,7.312h-11.16l-4.348-33.693h8.841c0.068,0.88,0.815,7.312,2.242,19.297c0.112-1.233,0.881-7.666,2.304-19.297h8.494
		l2.075,19.297c0.328-5.635,1.113-12.067,2.353-19.297H1031.061z"/>
</g>
<g>
	<path d="M1083.445,354.81v41.107h-9.344l-0.013-27.752l-3.72,27.752h-6.627l-3.923-27.117l-0.013,27.117h-9.344V354.81h13.832
		c0.41,2.472,0.833,5.384,1.269,8.739l1.518,10.456l2.456-19.195H1083.445z"/>
	<path d="M1110.664,379.667h-13.279v7.287c0,1.523,0.11,2.505,0.33,2.945s0.644,0.66,1.27,0.66c0.778,0,1.299-0.292,1.562-0.876
		s0.394-1.714,0.394-3.39v-4.443h9.725v2.488c0,2.082-0.131,3.682-0.394,4.799s-0.876,2.311-1.841,3.58s-2.188,2.222-3.669,2.856
		s-3.339,0.952-5.573,0.952c-2.167,0-4.079-0.313-5.738-0.939s-2.949-1.485-3.872-2.577s-1.562-2.294-1.917-3.605
		s-0.533-3.221-0.533-5.726v-9.826c0-2.945,0.397-5.269,1.193-6.97s2.099-3.004,3.91-3.91c1.812-0.905,3.894-1.358,6.246-1.358
		c2.878,0,5.252,0.546,7.122,1.638s3.183,2.539,3.936,4.342s1.13,4.338,1.13,7.604V379.667z M1100.381,374.183v-2.463
		c0-1.743-0.093-2.869-0.279-3.377s-0.567-0.762-1.143-0.762c-0.711,0-1.151,0.216-1.32,0.647s-0.254,1.596-0.254,3.491v2.463
		H1100.381z"/>
	<path d="M1134.354,362.224l-4.088,16.098l4.951,17.596h-9.973c-0.99-4.444-1.741-8.271-2.253-11.477
		c-0.684,4.004-1.426,7.829-2.228,11.477h-8.576l4.418-17.596l-4.418-16.098h8.576c1.383,6.888,2.125,10.798,2.228,11.73
		c0.99-5.751,1.741-9.661,2.253-11.73H1134.354z"/>
	<path d="M1147.125,354.81v5.357h-10.562v-5.357H1147.125z M1147.125,362.224v33.693h-10.562v-33.693H1147.125z"/>
	<path d="M1173.48,374.945h-9.674v-3.885c0-1.354-0.11-2.272-0.33-2.755s-0.626-0.724-1.219-0.724s-0.99,0.212-1.193,0.635
		s-0.305,1.371-0.305,2.844v15.895c0,1.202,0.152,2.104,0.457,2.704s0.753,0.901,1.346,0.901c0.694,0,1.164-0.313,1.409-0.939
		s0.368-1.812,0.368-3.555v-4.012h9.141c-0.017,2.691-0.114,4.71-0.292,6.056s-0.745,2.726-1.701,4.139s-2.205,2.479-3.745,3.199
		s-3.444,1.079-5.713,1.079c-2.895,0-5.188-0.495-6.881-1.485s-2.891-2.378-3.593-4.164s-1.054-4.32-1.054-7.604v-9.572
		c0-2.86,0.288-5.019,0.863-6.475s1.803-2.755,3.682-3.897s4.164-1.714,6.855-1.714c2.675,0,4.96,0.567,6.855,1.701
		s3.157,2.564,3.783,4.291S1173.48,371.78,1173.48,374.945z"/>
	<path d="M1199.734,374.056v8.252c0,3.03-0.152,5.252-0.457,6.665s-0.956,2.733-1.955,3.961s-2.281,2.133-3.847,2.717
		s-3.364,0.876-5.396,0.876c-2.269,0-4.189-0.25-5.764-0.749s-2.797-1.253-3.669-2.26s-1.494-2.226-1.866-3.656
		s-0.559-3.576-0.559-6.437v-8.633c0-3.132,0.339-5.577,1.016-7.338s1.896-3.174,3.656-4.24s4.012-1.6,6.754-1.6
		c2.302,0,4.278,0.343,5.929,1.028s2.924,1.578,3.821,2.679s1.511,2.234,1.841,3.402S1199.734,371.669,1199.734,374.056z
		 M1189.477,371.517c0-1.727-0.093-2.813-0.279-3.263c-0.187-0.448-0.584-0.673-1.193-0.673s-1.016,0.225-1.219,0.673
		c-0.203,0.449-0.305,1.536-0.305,3.263v15.209c0,1.591,0.102,2.628,0.305,3.11s0.601,0.724,1.193,0.724
		c0.609,0,1.012-0.22,1.206-0.66s0.292-1.388,0.292-2.844V371.517z"/>
</g>
<g>
	<path d="M1243.234,372.596c1.507,0.609,2.666,1.521,3.479,2.731s1.219,4.094,1.219,8.649c0,3.32-0.321,5.767-0.965,7.342
		s-1.896,2.866-3.758,3.874s-4.358,1.512-7.49,1.512c-3.047,0-5.459-0.482-7.236-1.448c-1.777-0.965-3.051-2.244-3.821-3.836
		s-1.155-4.242-1.155-7.951c0-2.49,0.19-4.649,0.571-6.479c0.381-1.828,1.578-3.294,3.593-4.395
		c-1.27-0.608-2.222-1.577-2.856-2.905s-0.952-3.015-0.952-5.062c0-3.535,0.981-6.188,2.945-7.955s4.9-2.651,8.811-2.651
		c4.52,0,7.643,0.938,9.369,2.816s2.59,4.559,2.59,8.044c0,2.216-0.283,3.814-0.851,4.795
		C1246.158,370.66,1244.995,371.632,1243.234,372.596z M1237.674,380.861c0-1.574-0.161-2.619-0.482-3.136s-0.829-0.774-1.523-0.774
		c-0.677,0-1.164,0.25-1.46,0.749s-0.444,1.553-0.444,3.161v5.332c0,1.777,0.165,2.92,0.495,3.428s0.851,0.762,1.562,0.762
		c0.728,0,1.219-0.258,1.473-0.774s0.381-1.68,0.381-3.491V380.861z M1237.471,363.773c0-1.388-0.123-2.306-0.368-2.755
		c-0.245-0.448-0.715-0.673-1.409-0.673c-0.677,0-1.134,0.241-1.371,0.724s-0.355,1.384-0.355,2.704v3.123
		c0,1.235,0.136,2.091,0.406,2.564s0.728,0.711,1.371,0.711c0.677,0,1.134-0.232,1.371-0.698s0.355-1.426,0.355-2.882V363.773z"/>
	<path d="M1269.539,354.81v8.956l-6.551,32.151h-10.207l7.3-33.719h-10.144v-7.389H1269.539z"/>
	<path d="M1288.785,354.81v41.107h-10.258v-22.039c0-3.183-0.076-5.095-0.229-5.738s-0.571-1.13-1.257-1.46
		s-2.213-0.495-4.583-0.495h-1.016v-4.792c4.96-1.068,8.726-3.262,11.299-6.583H1288.785z"/>
	<path d="M1316.969,368.724v13.711c0,3.114-0.169,5.383-0.508,6.805s-1.041,2.751-2.107,3.986s-2.353,2.124-3.859,2.666
		s-3.19,0.812-5.053,0.812c-2.454,0-4.494-0.283-6.119-0.851s-2.92-1.451-3.885-2.653s-1.65-2.467-2.057-3.796
		s-0.609-3.44-0.609-6.335v-14.346c0-3.774,0.326-6.602,0.978-8.48s1.946-3.386,3.885-4.52s4.287-1.701,7.046-1.701
		c2.251,0,4.266,0.394,6.043,1.181s3.106,1.748,3.986,2.882s1.477,2.412,1.79,3.834S1316.969,365.61,1316.969,368.724z
		 M1306.711,365.271c0-2.184-0.105-3.55-0.317-4.101c-0.212-0.55-0.707-0.825-1.485-0.825c-0.762,0-1.266,0.292-1.511,0.876
		s-0.368,1.934-0.368,4.05v20.059c0,2.387,0.114,3.825,0.343,4.316s0.724,0.736,1.485,0.736s1.261-0.288,1.498-0.863
		s0.355-1.87,0.355-3.885V365.271z"/>
	<path d="M1340.227,372.596c1.507,0.609,2.666,1.521,3.479,2.731s1.219,4.094,1.219,8.649c0,3.32-0.321,5.767-0.965,7.342
		s-1.896,2.866-3.758,3.874s-4.358,1.512-7.49,1.512c-3.047,0-5.459-0.482-7.236-1.448c-1.777-0.965-3.051-2.244-3.821-3.836
		s-1.155-4.242-1.155-7.951c0-2.49,0.19-4.649,0.571-6.479c0.381-1.828,1.578-3.294,3.593-4.395
		c-1.27-0.608-2.222-1.577-2.856-2.905s-0.952-3.015-0.952-5.062c0-3.535,0.981-6.188,2.945-7.955s4.9-2.651,8.811-2.651
		c4.52,0,7.643,0.938,9.369,2.816s2.59,4.559,2.59,8.044c0,2.216-0.283,3.814-0.851,4.795
		C1343.15,370.66,1341.987,371.632,1340.227,372.596z M1334.666,380.861c0-1.574-0.161-2.619-0.482-3.136s-0.829-0.774-1.523-0.774
		c-0.677,0-1.164,0.25-1.46,0.749s-0.444,1.553-0.444,3.161v5.332c0,1.777,0.165,2.92,0.495,3.428s0.851,0.762,1.562,0.762
		c0.728,0,1.219-0.258,1.473-0.774s0.381-1.68,0.381-3.491V380.861z M1334.463,363.773c0-1.388-0.123-2.306-0.368-2.755
		c-0.245-0.448-0.715-0.673-1.409-0.673c-0.677,0-1.134,0.241-1.371,0.724s-0.355,1.384-0.355,2.704v3.123
		c0,1.235,0.136,2.091,0.406,2.564s0.728,0.711,1.371,0.711c0.677,0,1.134-0.232,1.371-0.698s0.355-1.426,0.355-2.882V363.773z"/>
</g>
</svg>
